<mxfile host="app.diagrams.net" modified="2022-07-24T23:33:48.469Z" agent="5.0 (Macintosh; Intel Mac OS X 10_15_7) AppleWebKit/537.36 (KHTML, like Gecko) Chrome/103.0.0.0 Safari/537.36" etag="l17mizHDUznMyj7GI9ug" version="20.2.0" type="github">
  <diagram id="TwNS2Bx6cbTKUnUb6Pw8" name="Page-1">
    <mxGraphModel dx="786" dy="429" grid="1" gridSize="10" guides="1" tooltips="1" connect="1" arrows="1" fold="1" page="1" pageScale="1" pageWidth="850" pageHeight="1100" math="0" shadow="0">
      <root>
        <mxCell id="0" />
        <mxCell id="1" parent="0" />
        <mxCell id="CsDA2T0nXkZWO9mkbAMD-9" style="edgeStyle=orthogonalEdgeStyle;rounded=0;orthogonalLoop=1;jettySize=auto;html=1;exitX=0.5;exitY=1;exitDx=0;exitDy=0;" edge="1" parent="1" source="CsDA2T0nXkZWO9mkbAMD-1" target="CsDA2T0nXkZWO9mkbAMD-5">
          <mxGeometry relative="1" as="geometry" />
        </mxCell>
        <mxCell id="CsDA2T0nXkZWO9mkbAMD-11" style="edgeStyle=orthogonalEdgeStyle;rounded=0;orthogonalLoop=1;jettySize=auto;html=1;exitX=1;exitY=0.5;exitDx=0;exitDy=0;entryX=0.5;entryY=0;entryDx=0;entryDy=0;" edge="1" parent="1" source="CsDA2T0nXkZWO9mkbAMD-1" target="CsDA2T0nXkZWO9mkbAMD-7">
          <mxGeometry relative="1" as="geometry" />
        </mxCell>
        <mxCell id="CsDA2T0nXkZWO9mkbAMD-1" value="Home" style="rounded=0;whiteSpace=wrap;html=1;fillColor=#f8cecc;strokeColor=#b85450;" vertex="1" parent="1">
          <mxGeometry x="340" y="20" width="120" height="60" as="geometry" />
        </mxCell>
        <mxCell id="CsDA2T0nXkZWO9mkbAMD-17" style="edgeStyle=orthogonalEdgeStyle;rounded=0;orthogonalLoop=1;jettySize=auto;html=1;exitX=0.5;exitY=1;exitDx=0;exitDy=0;entryX=0;entryY=0.5;entryDx=0;entryDy=0;" edge="1" parent="1" source="CsDA2T0nXkZWO9mkbAMD-2" target="CsDA2T0nXkZWO9mkbAMD-15">
          <mxGeometry relative="1" as="geometry" />
        </mxCell>
        <mxCell id="CsDA2T0nXkZWO9mkbAMD-2" value="Watchlist" style="rounded=0;whiteSpace=wrap;html=1;fillColor=#dae8fc;strokeColor=#6c8ebf;" vertex="1" parent="1">
          <mxGeometry x="340" y="240" width="120" height="60" as="geometry" />
        </mxCell>
        <mxCell id="CsDA2T0nXkZWO9mkbAMD-18" style="edgeStyle=orthogonalEdgeStyle;rounded=0;orthogonalLoop=1;jettySize=auto;html=1;entryX=1;entryY=0.5;entryDx=0;entryDy=0;" edge="1" parent="1" source="CsDA2T0nXkZWO9mkbAMD-3" target="CsDA2T0nXkZWO9mkbAMD-15">
          <mxGeometry relative="1" as="geometry" />
        </mxCell>
        <mxCell id="CsDA2T0nXkZWO9mkbAMD-3" value="Genre" style="rounded=0;whiteSpace=wrap;html=1;fillColor=#e1d5e7;strokeColor=#9673a6;" vertex="1" parent="1">
          <mxGeometry x="510" y="240" width="120" height="60" as="geometry" />
        </mxCell>
        <mxCell id="CsDA2T0nXkZWO9mkbAMD-10" style="edgeStyle=orthogonalEdgeStyle;rounded=0;orthogonalLoop=1;jettySize=auto;html=1;entryX=0.5;entryY=0;entryDx=0;entryDy=0;" edge="1" parent="1" source="CsDA2T0nXkZWO9mkbAMD-5" target="CsDA2T0nXkZWO9mkbAMD-2">
          <mxGeometry relative="1" as="geometry" />
        </mxCell>
        <mxCell id="CsDA2T0nXkZWO9mkbAMD-12" style="edgeStyle=orthogonalEdgeStyle;rounded=0;orthogonalLoop=1;jettySize=auto;html=1;entryX=0;entryY=0.5;entryDx=0;entryDy=0;" edge="1" parent="1" source="CsDA2T0nXkZWO9mkbAMD-5" target="CsDA2T0nXkZWO9mkbAMD-7">
          <mxGeometry relative="1" as="geometry" />
        </mxCell>
        <mxCell id="CsDA2T0nXkZWO9mkbAMD-5" value="Profiles?" style="rounded=0;whiteSpace=wrap;html=1;dashed=1;fillColor=#fff2cc;strokeColor=#d6b656;" vertex="1" parent="1">
          <mxGeometry x="340" y="110" width="120" height="60" as="geometry" />
        </mxCell>
        <mxCell id="CsDA2T0nXkZWO9mkbAMD-13" style="edgeStyle=orthogonalEdgeStyle;rounded=0;orthogonalLoop=1;jettySize=auto;html=1;entryX=0.5;entryY=0;entryDx=0;entryDy=0;" edge="1" parent="1" source="CsDA2T0nXkZWO9mkbAMD-7" target="CsDA2T0nXkZWO9mkbAMD-3">
          <mxGeometry relative="1" as="geometry" />
        </mxCell>
        <mxCell id="CsDA2T0nXkZWO9mkbAMD-14" style="edgeStyle=orthogonalEdgeStyle;rounded=0;orthogonalLoop=1;jettySize=auto;html=1;exitX=0;exitY=1;exitDx=0;exitDy=0;entryX=0.5;entryY=0;entryDx=0;entryDy=0;" edge="1" parent="1" source="CsDA2T0nXkZWO9mkbAMD-7" target="CsDA2T0nXkZWO9mkbAMD-2">
          <mxGeometry relative="1" as="geometry" />
        </mxCell>
        <mxCell id="CsDA2T0nXkZWO9mkbAMD-7" value="CHUD" style="ellipse;whiteSpace=wrap;html=1;dashed=1;" vertex="1" parent="1">
          <mxGeometry x="510" y="100" width="120" height="80" as="geometry" />
        </mxCell>
        <mxCell id="CsDA2T0nXkZWO9mkbAMD-15" value="Detail&lt;br&gt;Card" style="rhombus;whiteSpace=wrap;html=1;dashed=1;fillColor=#fff2cc;strokeColor=#d6b656;" vertex="1" parent="1">
          <mxGeometry x="420" y="330" width="130" height="120" as="geometry" />
        </mxCell>
      </root>
    </mxGraphModel>
  </diagram>
</mxfile>
